<?xml version="1.0" standalone="no"?>
<!DOCTYPE svg PUBLIC "-//W3C//DTD SVG 20010904//EN"
 "http://www.w3.org/TR/2001/REC-SVG-20010904/DTD/svg10.dtd">
<svg version="1.0" xmlns="http://www.w3.org/2000/svg"
 width="500.000000pt" height="500.000000pt" viewBox="0 0 500.000000 500.000000"
 preserveAspectRatio="xMidYMid meet">
<metadata>
Created by potrace 1.14, written by Peter Selinger 2001-2017
</metadata>
<g transform="translate(0.000000,500.000000) scale(0.100000,-0.100000)"
fill="#000000" stroke="none">
<path d="M1205 3319 c-27 -13 -141 -74 -253 -137 l-203 -115 58 -19 c32 -9 98
-40 146 -67 l88 -50 87 51 c142 83 201 108 236 101 56 -10 105 -44 126 -88 24
-50 25 -86 4 -132 -28 -57 -68 -80 -156 -87 -102 -8 -142 -24 -359 -148 -251
-144 -260 -148 -317 -148 -137 0 -284 -101 -351 -240 -23 -49 -26 -67 -26
-170 0 -104 3 -121 27 -173 35 -75 119 -162 190 -198 80 -40 181 -56 265 -40
76 14 103 27 352 169 184 104 186 105 270 113 150 14 278 102 343 238 66 139
43 329 -54 438 -20 21 -19 21 16 73 43 63 76 164 76 234 0 158 -95 308 -240
379 -58 29 -74 32 -170 35 -90 2 -112 -1 -155 -19z m234 -838 c120 -86 62
-276 -84 -276 -44 0 -67 9 -182 74 l-132 75 32 19 c18 11 79 47 137 79 94 53
110 59 151 55 26 -2 60 -13 78 -26z m-592 -323 c180 -102 177 -82 27 -168
-149 -85 -190 -95 -251 -61 -55 32 -76 66 -81 131 -4 65 18 108 70 140 61 37
109 28 235 -42z"/>
<path d="M2230 3010 l0 -280 60 0 60 0 0 99 0 99 74 4 c56 2 82 9 102 24 87
64 104 179 41 268 -35 50 -87 66 -219 66 l-118 0 0 -280z m235 155 c31 -30 32
-73 4 -109 -17 -22 -28 -26 -70 -26 l-49 0 0 80 0 80 45 0 c35 0 52 -6 70 -25z"/>
<path d="M2868 3028 c-59 -145 -110 -271 -114 -280 -5 -16 1 -18 59 -18 l64 0
20 53 20 52 108 0 108 0 20 -52 20 -53 64 0 c58 0 64 2 59 18 -4 9 -55 135
-113 280 l-106 262 -52 0 -51 0 -106 -262z m191 19 c17 -49 31 -93 31 -98 0
-5 -29 -9 -65 -9 -36 0 -65 3 -65 8 0 10 63 193 66 190 1 -2 16 -43 33 -91z"/>
<path d="M3502 3200 c35 -50 82 -118 106 -151 l42 -61 0 -129 0 -129 60 0 60
0 0 135 0 135 83 117 c46 65 92 130 102 146 l17 27 -71 0 -72 0 -47 -76 c-82
-132 -69 -130 -137 -20 l-60 96 -73 0 -73 0 63 -90z"/>
<path d="M4157 3283 c-4 -3 -7 -129 -7 -280 l0 -273 165 0 165 0 0 55 0 55
-100 0 -100 0 0 55 0 55 95 0 95 0 0 60 0 60 -95 0 -95 0 0 55 0 55 100 0 100
0 0 55 0 55 -158 0 c-87 0 -162 -3 -165 -7z"/>
<path d="M3027 2309 c-225 -55 -305 -325 -141 -481 65 -61 118 -83 199 -82
112 1 202 58 257 164 32 62 32 176 0 237 -65 123 -197 191 -315 162z m130
-136 c19 -9 46 -34 61 -55 70 -106 -6 -248 -132 -248 -58 0 -97 19 -133 67
-23 30 -28 46 -28 93 0 47 5 63 29 94 48 64 131 84 203 49z"/>
<path d="M2210 2255 l0 -55 105 0 c58 0 105 -4 105 -8 0 -5 -49 -104 -110
-219 -60 -116 -110 -214 -110 -217 0 -3 92 -6 205 -6 l205 0 0 55 0 55 -105 0
c-58 0 -105 3 -105 6 0 3 48 99 108 212 59 114 108 213 110 220 3 9 -43 12
-202 12 l-206 0 0 -55z"/>
<path d="M3570 2030 l0 -280 60 0 60 0 0 173 c1 137 3 169 13 156 7 -9 50 -86
97 -172 l85 -157 63 0 62 0 0 280 0 280 -60 0 -60 0 -2 -172 -3 -173 -95 172
-95 173 -62 0 -63 0 0 -280z"/>
<path d="M4230 2030 l0 -280 165 0 165 0 0 55 0 54 -102 3 -103 3 -3 52 -3 52
98 3 98 3 0 55 0 55 -98 3 -98 3 3 52 3 52 103 3 103 3 -3 52 -3 52 -162 3
-163 2 0 -280z"/>
</g>
</svg>
